<svg xmlns="http://www.w3.org/2000/svg" width="1024" height="1024" viewBox="0 0 1024 1024" version="1.1"><path d="M 630.399 393.664 C 577.574 446.924, 529.479 495.563, 523.520 501.750 C 517.561 507.938, 512.208 513, 511.625 513 C 511.043 513, 495.251 497.788, 476.533 479.195 C 457.815 460.603, 425.410 428.540, 404.523 407.945 C 383.636 387.350, 350.428 354.525, 330.729 335 C 311.029 315.475, 294.592 299.387, 294.202 299.249 C 293.361 298.951, 293.621 368.434, 295.001 512.500 C 295.554 570.250, 296.047 643.037, 296.096 674.249 C 296.146 705.460, 296.482 731.155, 296.843 731.349 C 297.709 731.812, 728.281 729.052, 728.753 728.580 C 729.129 728.204, 727.043 299.156, 726.658 297.664 C 726.540 297.204, 683.223 340.404, 630.399 393.664" stroke="none" fill="#eeebf9" fill-rule="evenodd"/><path d="M 498.500 14.610 C 481.372 17.197, 467.022 21.450, 455 27.503 C 445.456 32.308, 126.730 216.406, 118.511 221.861 C 109.970 227.529, 94.060 243.171, 87.796 252.057 C 78.068 265.859, 71.785 279.564, 67.297 296.773 L 64.500 307.500 64.500 512 L 64.500 716.500 67.297 727.227 C 71.785 744.436, 78.068 758.141, 87.796 771.943 C 94.069 780.842, 109.980 796.479, 118.511 802.129 C 126.806 807.623, 445.534 991.734, 454.987 996.492 C 472.898 1005.507, 490.171 1009.429, 512 1009.438 C 533.633 1009.447, 550.582 1005.669, 568.068 996.939 C 574.109 993.923, 891.412 811.152, 900.927 805.206 C 907.425 801.147, 920.118 790.640, 925.345 784.994 C 940.774 768.329, 950.797 749.911, 956.635 727.500 L 959.500 716.500 959.500 512 L 959.500 307.500 956.703 296.773 C 952.215 279.564, 945.932 265.859, 936.204 252.057 C 929.938 243.168, 914.028 227.528, 905.489 221.863 C 896.958 216.203, 578.574 32.323, 568.603 27.297 C 552.413 19.136, 535.722 15.132, 515.500 14.555 C 507.800 14.336, 500.150 14.361, 498.500 14.610 M 630.399 393.664 C 577.574 446.924, 529.479 495.563, 523.520 501.750 C 517.561 507.938, 512.208 513, 511.625 513 C 511.043 513, 495.251 497.788, 476.533 479.195 C 457.815 460.603, 425.410 428.540, 404.523 407.945 C 383.636 387.350, 350.428 354.525, 330.729 335 C 311.029 315.475, 294.592 299.387, 294.202 299.249 C 293.361 298.951, 293.621 368.434, 295.001 512.500 C 295.554 570.250, 296.047 643.037, 296.096 674.249 C 296.146 705.460, 296.482 731.155, 296.843 731.349 C 297.709 731.812, 728.281 729.052, 728.753 728.580 C 729.129 728.204, 727.043 299.156, 726.658 297.664 C 726.540 297.204, 683.223 340.404, 630.399 393.664" stroke="none" fill="#542cd4" fill-rule="evenodd"/></svg>