<?xml version="1.0" standalone="no"?>
<!DOCTYPE svg PUBLIC "-//W3C//DTD SVG 20010904//EN"
 "http://www.w3.org/TR/2001/REC-SVG-20010904/DTD/svg10.dtd">
<svg version="1.0" xmlns="http://www.w3.org/2000/svg"
 width="159.000000pt" height="221.000000pt" viewBox="0 0 159.000000 221.000000"
 preserveAspectRatio="xMidYMid meet">

<g transform="translate(0.000000,221.000000) scale(0.100000,-0.100000)"
fill="#000000" stroke="none">
<path d="M1319 2122 c-45 -29 -98 -95 -199 -247 -29 -44 -73 -105 -96 -136
-42 -55 -44 -56 -104 -62 -162 -17 -257 -114 -282 -285 -7 -55 -7 -100 0 -157
l11 -80 -67 -127 c-37 -70 -70 -128 -73 -128 -3 0 -17 87 -30 193 -19 155 -24
239 -24 437 0 277 6 315 62 367 19 18 33 33 30 33 -2 0 -44 -17 -93 -39 l-89
-38 1 -234 c0 -190 5 -275 27 -456 15 -123 27 -273 27 -338 0 -110 1 -117 25
-140 13 -14 30 -25 38 -25 38 0 97 97 186 304 12 27 24 46 28 43 3 -4 30 -69
58 -144 l53 -138 -22 -18 c-11 -9 -66 -50 -121 -89 -204 -146 -308 -279 -310
-394 0 -66 26 -97 97 -115 196 -46 411 93 478 310 24 77 25 146 4 223 -22 75
-52 51 331 267 61 34 121 71 135 82 l25 20 -40 -6 c-68 -11 -184 -61 -345
-150 -85 -46 -158 -81 -162 -77 -4 4 -30 65 -58 136 -57 142 -70 208 -50 258
18 44 118 220 186 325 l55 86 22 -22 c19 -18 23 -36 27 -124 l5 -102 22 24
c43 47 43 165 0 252 l-24 48 73 103 c40 57 111 148 158 203 48 55 93 115 102
133 28 59 -5 69 -77 24z m-389 -527 c0 -2 -25 -43 -56 -90 -31 -47 -75 -124
-99 -170 -23 -46 -45 -81 -49 -78 -10 11 -7 134 6 175 15 51 82 126 133 149
39 18 65 24 65 14z m-85 -996 c37 -110 0 -231 -102 -334 -136 -138 -283 -135
-283 6 0 103 45 158 235 289 58 40 108 77 111 81 11 19 23 7 39 -42z"/>
</g>
</svg>
